<svg width="17" height="20" viewBox="0 0 17 20" fill="none" xmlns="http://www.w3.org/2000/svg">
<path d="M0.956789 18.329V1.67002C0.956603 1.50675 1.0014 1.34644 1.08646 1.20594C1.17153 1.06544 1.29373 0.949939 1.44022 0.871569C1.58671 0.793199 1.75208 0.754855 1.91897 0.760566C2.08585 0.766277 2.24808 0.815833 2.38861 0.904026L15.7065 9.234C15.8383 9.31614 15.9468 9.42943 16.0219 9.5634C16.0971 9.69737 16.1365 9.8477 16.1365 10.0005C16.1365 10.1533 16.0971 10.3036 16.0219 10.4376C15.9468 10.5716 15.8383 10.6849 15.7065 10.767L2.38861 19.096C2.248 19.1842 2.08568 19.2338 1.91871 19.2394C1.75174 19.2451 1.58629 19.2067 1.43977 19.1282C1.29324 19.0497 1.17106 18.9341 1.08607 18.7934C1.00108 18.6528 0.956419 18.4923 0.956789 18.329Z" fill="#FD695A"/>
</svg>
